<svg width="32" height="31" viewBox="0 0 32 31" fill="none" xmlns="http://www.w3.org/2000/svg">
<path d="M4.17895 14.4237L26.2529 4.47817C26.4752 4.37804 26.7226 4.34032 26.9663 4.36941C27.2101 4.3985 27.4402 4.49319 27.63 4.6425C27.8199 4.79182 27.9615 4.98961 28.0386 5.21293C28.1157 5.43624 28.125 5.67592 28.0656 5.90411L26.4918 11.9323L16.4183 15.5488L26.4918 19.1652L28.0656 25.1934C28.1262 25.4218 28.1176 25.662 28.0409 25.8858C27.9641 26.1097 27.8224 26.308 27.6323 26.4576C27.4421 26.6072 27.2114 26.7019 26.9671 26.7305C26.7229 26.7591 26.4751 26.7206 26.2529 26.6194L4.17895 16.6739C3.95588 16.5735 3.76726 16.4144 3.63515 16.2151C3.50303 16.0159 3.43287 15.7848 3.43287 15.5488C3.43287 15.3128 3.50303 15.0817 3.63515 14.8824C3.76726 14.6832 3.95588 14.5241 4.17895 14.4237Z" fill="#334158"/>
</svg>
