<svg width="61" height="61" viewBox="0 0 61 61" fill="none" xmlns="http://www.w3.org/2000/svg">
<rect x="0.5" y="0.5" width="60" height="60" rx="30" fill="#457EFF" fill-opacity="0.14"/>
<path d="M40.2251 37.6504C38.1748 38.1427 36.0345 38.1188 33.9957 37.581C31.9569 37.0431 30.0833 36.008 28.5427 34.5684C27.0022 33.1287 25.8427 31.3295 25.1681 29.3318C24.4935 27.3341 24.325 25.2003 24.6774 23.1215C24.6238 23.1732 24.5672 23.2218 24.5079 23.267C24.0879 23.5865 23.5629 23.705 22.5129 23.942L21.5604 24.158C17.8704 24.9934 16.0254 25.4104 15.5859 26.8219C15.1478 28.2319 16.4049 29.7034 18.9204 32.6449L19.5714 33.4054C20.2854 34.2409 20.6439 34.6594 20.8044 35.1754C20.9649 35.6929 20.9109 36.2509 20.8029 37.3654L20.7039 38.3809C20.3244 42.3064 20.1339 44.2683 21.2829 45.1398C22.4319 46.0128 24.1599 45.2178 27.613 43.6263L28.5085 43.2153C29.4895 42.7624 29.98 42.5374 30.5005 42.5374C31.021 42.5374 31.5115 42.7624 32.494 43.2153L33.3865 43.6263C36.841 45.2163 38.5691 46.0113 39.7166 45.1413C40.8671 44.2683 40.6766 42.3064 40.2971 38.3809L40.2251 37.6504Z" fill="#334158"/>
<path opacity="0.5" d="M26.23 20.612L25.738 21.494C25.198 22.463 24.928 22.9475 24.508 23.267C24.568 23.222 24.6235 23.174 24.6775 23.1215C24.325 25.2005 24.4935 27.3344 25.1682 29.3323C25.8428 31.3302 27.0024 33.1295 28.5432 34.5692C30.084 36.0088 31.9578 37.0439 33.9968 37.5816C36.0358 38.1194 38.1763 38.143 40.2267 37.6504L40.1967 37.3654C40.0902 36.2509 40.0362 35.6929 40.1967 35.1754C40.3572 34.6594 40.7142 34.2409 41.4297 33.4054L42.0807 32.6449C44.5962 29.7049 45.8532 28.2334 45.4137 26.8219C44.9757 25.4104 43.1307 24.9919 39.4407 24.158L38.4867 23.942C37.4381 23.705 36.9131 23.5865 36.4916 23.267C36.0716 22.9475 35.8016 22.463 35.2616 21.494L34.7711 20.612C32.8706 17.204 31.9211 15.5 30.5006 15.5C29.0801 15.5 28.1306 17.204 26.23 20.612Z" fill="#334158"/>
</svg>
