<svg width="61" height="61" viewBox="0 0 61 61" fill="none" xmlns="http://www.w3.org/2000/svg">
<rect x="0.5" y="0.5" width="60" height="60" rx="30" fill="#457EFF" fill-opacity="0.14"/>
<path d="M19.25 15.5C18.2554 15.5 17.3016 15.9515 16.5983 16.7553C15.8951 17.559 15.5 18.6491 15.5 19.7857V32.6429C15.5 33.7795 15.8951 34.8696 16.5983 35.6733C17.3016 36.477 18.2554 36.9286 19.25 36.9286H34.25C35.2446 36.9286 36.1984 36.477 36.9016 35.6733C37.6049 34.8696 38 33.7795 38 32.6429V19.7857C38 18.6491 37.6049 17.559 36.9016 16.7553C36.1984 15.9515 35.2446 15.5 34.25 15.5H19.25ZM19.7525 39.0714C20.0816 39.7229 20.555 40.2639 21.1251 40.6401C21.6951 41.0162 22.3418 41.2143 23 41.2143H34.25C36.2391 41.2143 38.1468 40.3112 39.5533 38.7038C40.9598 37.0963 41.75 34.9161 41.75 32.6429V24.0714C41.75 23.3191 41.5767 22.5801 41.2476 21.9286C40.9184 21.2771 40.4451 20.7361 39.875 20.36V32.6429C39.875 34.3478 39.2824 35.983 38.2275 37.1885C37.1726 38.3941 35.7418 39.0714 34.25 39.0714H19.7525ZM23.5025 43.3571C23.8316 44.0086 24.305 44.5496 24.8751 44.9258C25.4451 45.3019 26.0918 45.5 26.75 45.5H34.25C37.2337 45.5 40.0952 44.1454 42.205 41.7342C44.3147 39.323 45.5 36.0528 45.5 32.6429V28.3571C45.5 27.6049 45.3267 26.8658 44.9976 26.2143C44.6684 25.5629 44.1951 25.0219 43.625 24.6457V32.6429C43.625 35.4845 42.6373 38.2097 40.8791 40.219C39.121 42.2283 36.7364 43.3571 34.25 43.3571H23.5025Z" fill="#334158"/>
</svg>
