<svg width="61" height="61" viewBox="0 0 61 61" fill="none" xmlns="http://www.w3.org/2000/svg">
<rect x="0.5" y="0.5" width="60" height="60" rx="30" fill="#457EFF" fill-opacity="0.14"/>
<path d="M30.5 18C37.4037 18 43 23.5963 43 30.5C43 37.4037 37.4037 43 30.5 43C23.5963 43 18 37.4037 18 30.5C18 23.5963 23.5963 18 30.5 18ZM30.5 20.5C27.8478 20.5 25.3043 21.5536 23.4289 23.4289C21.5536 25.3043 20.5 27.8478 20.5 30.5C20.5 33.1522 21.5536 35.6957 23.4289 37.5711C25.3043 39.4464 27.8478 40.5 30.5 40.5C33.1522 40.5 35.6957 39.4464 37.5711 37.5711C39.4464 35.6957 40.5 33.1522 40.5 30.5C40.5 27.8478 39.4464 25.3043 37.5711 23.4289C35.6957 21.5536 33.1522 20.5 30.5 20.5ZM30.5 23C30.8062 23 31.1017 23.1124 31.3305 23.3159C31.5593 23.5193 31.7054 23.7997 31.7413 24.1037L31.75 24.25V29.9825L35.1337 33.3663C35.3579 33.5912 35.4881 33.893 35.4978 34.2105C35.5075 34.5279 35.396 34.8371 35.1859 35.0753C34.9759 35.3136 34.6831 35.4629 34.3669 35.493C34.0508 35.5231 33.735 35.4318 33.4838 35.2375L33.3663 35.1337L29.6163 31.3837C29.422 31.1893 29.2972 30.9363 29.2612 30.6637L29.25 30.5V24.25C29.25 23.9185 29.3817 23.6005 29.6161 23.3661C29.8505 23.1317 30.1685 23 30.5 23Z" fill="#334158"/>
</svg>
