<svg width="61" height="61" viewBox="0 0 61 61" fill="none" xmlns="http://www.w3.org/2000/svg">
<rect x="0.5" y="0.5" width="60" height="60" rx="30" fill="#457EFF" fill-opacity="0.14"/>
<path d="M30.4991 15.5C30.4991 15.5 37.4222 18.6385 37.4222 31.6538C37.4222 35.4846 35.8222 40.2231 34.9606 42.4231H26.0376C25.176 40.2231 23.576 35.4846 23.576 31.6538C23.576 18.6385 30.4991 15.5 30.4991 15.5ZM33.576 28.5769C33.576 26.8846 32.1914 25.5 30.4991 25.5C28.8068 25.5 27.4222 26.8846 27.4222 28.5769C27.4222 30.2692 28.8068 31.6538 30.4991 31.6538C32.1914 31.6538 33.576 30.2692 33.576 28.5769ZM23.8683 43.2231C23.1299 41.3308 21.5299 36.8077 21.2991 32.6538L19.5606 33.8077C18.6991 34.3923 18.1914 35.3462 18.1914 36.3769V45.5L23.8683 43.2231ZM42.8068 45.5V36.3769C42.8068 35.3462 42.2991 34.3923 41.4376 33.8231L39.6991 32.6692C39.4683 36.8077 37.8529 41.3462 37.1299 43.2385L42.8068 45.5Z" fill="#334158"/>
</svg>
