<svg width="52" height="53" viewBox="0 0 52 53" fill="none" xmlns="http://www.w3.org/2000/svg">
<g clip-path="url(#clip0_3019_664)">
<g filter="url(#filter0_d_3019_664)">
<rect y="0.953125" width="52" height="52" rx="11.44" fill="#334158"/>
</g>
<g clip-path="url(#clip1_3019_664)">
<line x1="26.3822" y1="0.953125" x2="26.3822" y2="52.9531" stroke="#F9F9F9" stroke-opacity="0.19" stroke-width="0.764477"/>
<line x1="48.9656" y1="4.52858" x2="3.72559" y2="49.7686" stroke="#F9F9F9" stroke-opacity="0.19" stroke-width="0.764477"/>
<line x1="48.425" y1="49.7683" x2="3.18502" y2="4.52833" stroke="#F9F9F9" stroke-opacity="0.19" stroke-width="0.764477"/>
<circle cx="26.0006" cy="26.9528" r="17.0344" stroke="#F9F9F9" stroke-opacity="0.19" stroke-width="0.764477"/>
<circle cx="25.9987" cy="26.9533" r="7.28" fill="#334158"/>
<circle cx="25.9987" cy="26.9533" r="6.89776" stroke="#F9F9F9" stroke-opacity="0.19" stroke-width="0.764477"/>
</g>
<path fill-rule="evenodd" clip-rule="evenodd" d="M19.7592 12.2491C19.3647 14.3394 17.1158 26.114 16.6538 28.515C16.1917 30.916 18.172 33.0682 20.1162 33.0682C22.0604 33.0682 22.3173 33.0682 23.1153 33.0682C23.9133 33.0682 25.1013 33.6287 24.6542 35.6702C24.207 37.7116 23.7446 39.8117 23.29 41.7953C22.8355 43.7789 25.1135 44.5787 26.1012 43.0323C27.0889 41.4859 34.4634 29.683 35.312 28.0957C36.1606 26.5084 34.7706 24.0538 32.6783 24.0538C30.5861 24.0538 29.7203 24.0538 28.6228 24.0538C27.5253 24.0538 27.3713 23.2703 27.7696 21.6562C28.1679 20.0421 28.6469 17.9307 29.3874 14.8365C30.128 11.7423 27.1437 10.0615 25.5713 10.0615C23.9988 10.0615 22.3081 10.0615 21.842 10.0615C21.3758 10.0615 20.1538 10.1588 19.7592 12.2491Z" fill="#457EFF"/>
</g>
<defs>
<filter id="filter0_d_3019_664" x="-20.8" y="-7.36687" width="93.6" height="93.6" filterUnits="userSpaceOnUse" color-interpolation-filters="sRGB">
<feFlood flood-opacity="0" result="BackgroundImageFix"/>
<feColorMatrix in="SourceAlpha" type="matrix" values="0 0 0 0 0 0 0 0 0 0 0 0 0 0 0 0 0 0 127 0" result="hardAlpha"/>
<feOffset dy="12.48"/>
<feGaussianBlur stdDeviation="10.4"/>
<feColorMatrix type="matrix" values="0 0 0 0 0.101961 0 0 0 0 0.101961 0 0 0 0 0.101961 0 0 0 0.16 0"/>
<feBlend mode="normal" in2="BackgroundImageFix" result="effect1_dropShadow_3019_664"/>
<feBlend mode="normal" in="SourceGraphic" in2="effect1_dropShadow_3019_664" result="shape"/>
</filter>
<clipPath id="clip0_3019_664">
<rect y="0.953125" width="52" height="52" rx="12.2316" fill="white"/>
</clipPath>
<clipPath id="clip1_3019_664">
<rect width="45.24" height="52" fill="white" transform="translate(3.45508 0.953125)"/>
</clipPath>
</defs>
</svg>
