<svg width="88" height="22" viewBox="0 0 88 22" fill="none" xmlns="http://www.w3.org/2000/svg">
<path d="M1.05354 20.9094C0.631331 20.9094 0.289062 20.5671 0.289062 20.1449V1.15277C0.289062 0.809785 0.567109 0.531738 0.910096 0.531738V0.531738C2.62503 0.531738 4.01527 1.92197 4.01527 3.63691V17.2338C4.01527 17.6561 4.35753 17.9983 4.77974 17.9983H12.2752C12.6974 17.9983 13.0397 18.3406 13.0397 18.7628V20.1449C13.0397 20.5671 12.6974 20.9094 12.2752 20.9094H1.05354Z" fill="white"/>
<path d="M21.5405 21.2588C20.1432 21.2588 18.8817 20.9385 17.7561 20.2981C16.6498 19.6576 15.7668 18.7746 15.107 17.649C14.4665 16.504 14.1463 15.1843 14.1463 13.6899C14.1463 12.1955 14.4762 10.8855 15.1361 9.75992C15.7959 8.61488 16.6789 7.72215 17.7852 7.08171C18.9108 6.44127 20.1723 6.12104 21.5696 6.12104C22.9475 6.12104 24.1896 6.44127 25.2958 7.08171C26.4214 7.72215 27.3045 8.61488 27.9449 9.75992C28.6047 10.8855 28.9347 12.1955 28.9347 13.6899C28.9347 15.1843 28.6047 16.504 27.9449 17.649C27.3045 18.7746 26.4214 19.6576 25.2958 20.2981C24.1702 20.9385 22.9184 21.2588 21.5405 21.2588ZM21.5405 18.0274C22.5108 18.0274 23.3551 17.6684 24.0731 16.9503C24.7912 16.2128 25.1502 15.126 25.1502 13.6899C25.1502 12.2538 24.7912 11.1767 24.0731 10.4586C23.3551 9.7211 22.5206 9.35236 21.5696 9.35236C20.5798 9.35236 19.7259 9.7211 19.0078 10.4586C18.3092 11.1767 17.9598 12.2538 17.9598 13.6899C17.9598 15.126 18.3092 16.2128 19.0078 16.9503C19.7259 17.6684 20.5701 18.0274 21.5405 18.0274Z" fill="white"/>
<path d="M38.3355 21.2588C36.8606 21.2588 35.5603 20.9385 34.4346 20.2981C33.309 19.6576 32.4163 18.7649 31.7564 17.6199C31.116 16.4748 30.7958 15.1649 30.7958 13.6899C30.7958 12.2149 31.116 10.9049 31.7564 9.75992C32.4163 8.61488 33.309 7.72215 34.4346 7.08171C35.5603 6.44127 36.8606 6.12104 38.3355 6.12104C40.1792 6.12104 41.7318 6.60623 42.9933 7.57659C44.0195 8.35018 44.7438 9.36778 45.1664 10.6294C45.3203 11.0888 44.9551 11.5357 44.4706 11.5357H42.0606C41.7172 11.5357 41.426 11.301 41.2745 10.9928C41.0565 10.549 40.7366 10.1865 40.3151 9.90547C39.7522 9.49792 39.0827 9.29414 38.3064 9.29414C37.2778 9.29414 36.4045 9.68229 35.6864 10.4586C34.9683 11.2349 34.6093 12.312 34.6093 13.6899C34.6093 15.0678 34.9683 16.1449 35.6864 16.9212C36.4045 17.6975 37.2778 18.0857 38.3064 18.0857C39.0827 18.0857 39.7522 17.8916 40.3151 17.5034C40.7391 17.2208 41.0602 16.8506 41.2783 16.3929C41.4269 16.0812 41.7194 15.8441 42.0648 15.8441H44.4638C44.9505 15.8441 45.3159 16.2949 45.1555 16.7545C44.7314 17.9693 44.0107 18.9758 42.9933 19.7741C41.7318 20.7639 40.1792 21.2588 38.3355 21.2588Z" fill="white"/>
<path d="M54.7032 21.2588C53.3059 21.2588 52.0444 20.9385 50.9188 20.2981C49.8126 19.6576 48.9296 18.7746 48.2697 17.649C47.6293 16.504 47.309 15.1843 47.309 13.6899C47.309 12.1955 47.639 10.8855 48.2988 9.75992C48.9587 8.61488 49.8417 7.72215 50.9479 7.08171C52.0735 6.44127 53.335 6.12104 54.7323 6.12104C56.1103 6.12104 57.3523 6.44127 58.4585 7.08171C59.5842 7.72215 60.4672 8.61488 61.1076 9.75992C61.7675 10.8855 62.0974 12.1955 62.0974 13.6899C62.0974 15.1843 61.7675 16.504 61.1076 17.649C60.4672 18.7746 59.5842 19.6576 58.4585 20.2981C57.3329 20.9385 56.0812 21.2588 54.7032 21.2588ZM54.7032 18.0274C55.6736 18.0274 56.5178 17.6684 57.2359 16.9503C57.954 16.2128 58.313 15.126 58.313 13.6899C58.313 12.2538 57.954 11.1767 57.2359 10.4586C56.5178 9.7211 55.6833 9.35236 54.7323 9.35236C53.7426 9.35236 52.8887 9.7211 52.1706 10.4586C51.4719 11.1767 51.1226 12.2538 51.1226 13.6899C51.1226 15.126 51.4719 16.2128 52.1706 16.9503C52.8887 17.6684 53.7329 18.0274 54.7032 18.0274Z" fill="white"/>
<path d="M72.1832 21.2588C70.6888 21.2588 69.34 20.9676 68.1368 20.3854C66.9335 19.7838 65.9729 18.8814 65.2548 17.6781C64.5561 16.4748 64.2068 14.9514 64.2068 13.1077V1.29622C64.2068 0.874008 64.5491 0.531738 64.9713 0.531738H67.1685C67.5907 0.531738 67.933 0.874007 67.933 1.29622V13.1368C67.933 14.7282 68.3115 15.912 69.0683 16.6883C69.8446 17.4646 70.912 17.8528 72.2705 17.8528C73.6096 17.8528 74.6673 17.4646 75.4436 16.6883C76.2199 15.912 76.6081 14.7282 76.6081 13.1368V1.29622C76.6081 0.874007 76.9503 0.531738 77.3726 0.531738H79.5698C79.992 0.531738 80.3343 0.874006 80.3343 1.29622V13.1077C80.3343 14.9514 79.9655 16.4748 79.2281 17.6781C78.4906 18.8814 77.5008 19.7838 76.2587 20.3854C75.0361 20.9676 73.6776 21.2588 72.1832 21.2588Z" fill="white"/>
<path d="M84.9025 20.9094C84.4803 20.9094 84.138 20.5671 84.138 20.1449V1.15277C84.138 0.809785 84.4161 0.531738 84.7591 0.531738V0.531738C86.474 0.531738 87.8642 1.92197 87.8642 3.63691V20.1449C87.8642 20.5672 87.522 20.9094 87.0998 20.9094H84.9025Z" fill="white"/>
</svg>
