<svg width="30" height="30" viewBox="0 0 30 30" fill="none" xmlns="http://www.w3.org/2000/svg">
<path d="M10.5004 14.9532C10.5004 16.1467 10.9745 17.2913 11.8184 18.1352C12.6623 18.9791 13.8069 19.4532 15.0004 19.4532C16.1939 19.4532 17.3385 18.9791 18.1824 18.1352C19.0263 17.2913 19.5004 16.1467 19.5004 14.9532C19.5004 14.6967 19.4734 14.4462 19.4269 14.2032H21.0004V20.1987C21.0004 20.6157 20.6629 20.9532 20.2459 20.9532H9.75339C9.55354 20.9528 9.36202 20.8732 9.22084 20.7317C9.07967 20.5903 9.00039 20.3986 9.00039 20.1987V14.2032H10.5739C10.5274 14.4462 10.5004 14.6967 10.5004 14.9532ZM15.0004 17.9532C14.6063 17.9531 14.2161 17.8754 13.8521 17.7245C13.4881 17.5736 13.1573 17.3525 12.8788 17.0738C12.6002 16.7951 12.3792 16.4642 12.2285 16.1001C12.0778 15.736 12.0003 15.3458 12.0004 14.9517C12.0005 14.5577 12.0782 14.1675 12.2291 13.8034C12.38 13.4394 12.6011 13.1087 12.8798 12.8301C13.1585 12.5515 13.4894 12.3306 13.8535 12.1799C14.2176 12.0291 14.6078 11.9516 15.0019 11.9517C15.7977 11.9519 16.5609 12.2683 17.1235 12.8312C17.6861 13.394 18.0021 14.1574 18.0019 14.9532C18.0017 15.7491 17.6853 16.5122 17.1225 17.0749C16.5596 17.6375 15.7962 17.9534 15.0004 17.9532ZM11.4004 11.8032H9.60189C9.4824 11.8032 9.36779 11.7559 9.28316 11.6715C9.19853 11.5872 9.15078 11.4727 9.15039 11.3532V9.55472C9.15039 9.43498 9.19796 9.32014 9.28263 9.23546C9.3673 9.15079 9.48214 9.10322 9.60189 9.10322H11.4004C11.5201 9.10322 11.635 9.15079 11.7196 9.23546C11.8043 9.32014 11.8519 9.43498 11.8519 9.55472V11.3532C11.8504 11.6007 11.6479 11.8032 11.4004 11.8032ZM15.0004 0.553223C18.8195 0.553223 22.4822 2.07036 25.1827 4.77088C27.8833 7.47141 29.4004 11.1341 29.4004 14.9532C29.4004 18.7723 27.8833 22.435 25.1827 25.1356C22.4822 27.8361 18.8195 29.3532 15.0004 29.3532C13.1094 29.3532 11.2368 28.9808 9.48974 28.2571C7.74266 27.5334 6.15521 26.4727 4.81805 25.1356C3.48088 23.7984 2.42019 22.211 1.69652 20.4639C0.972853 18.7168 0.600386 16.8443 0.600386 14.9532C0.600386 13.0622 0.972853 11.1897 1.69652 9.44258C2.42019 7.69549 3.48088 6.10805 4.81805 4.77088C6.15521 3.43372 7.74266 2.37303 9.48974 1.64936C11.2368 0.92569 13.1094 0.553223 15.0004 0.553223ZM7.50039 20.7867C7.50039 21.7032 8.25039 22.4532 9.16689 22.4532H20.8339C21.7504 22.4532 22.5004 21.7032 22.5004 20.7867V9.11972C22.5004 8.20322 21.7504 7.45322 20.8339 7.45322H9.16689C8.25039 7.45322 7.50039 8.20322 7.50039 9.11972V20.7867Z" fill="black"/>
</svg>
