<svg width="30" height="30" viewBox="0 0 30 30" fill="none" xmlns="http://www.w3.org/2000/svg">
<path d="M14.9996 0.553223C7.04661 0.553223 0.599609 7.00022 0.599609 14.9532C0.599609 22.9062 7.04661 29.3532 14.9996 29.3532C22.9526 29.3532 29.3996 22.9062 29.3996 14.9532C29.3996 7.00022 22.9526 0.553223 14.9996 0.553223ZM20.8571 12.3492C20.8631 12.4722 20.8646 12.5952 20.8646 12.7152C20.8646 16.4652 18.0131 20.7867 12.7961 20.7867C11.2546 20.7893 9.74506 20.3465 8.44911 19.5117C8.66961 19.5387 8.89611 19.5492 9.12561 19.5492C10.4546 19.5492 11.6771 19.0977 12.6476 18.3357C12.0562 18.3241 11.4831 18.1283 11.0083 17.7755C10.5334 17.4227 10.1805 16.9306 9.99861 16.3677C10.4233 16.4485 10.8609 16.4316 11.2781 16.3182C10.6362 16.1884 10.0589 15.8406 9.64417 15.3337C9.22944 14.8269 9.00277 14.1921 9.00261 13.5372V13.5027C9.38511 13.7142 9.82311 13.8432 10.2881 13.8582C9.68631 13.4576 9.26029 12.8422 9.09718 12.1379C8.93407 11.4336 9.04619 10.6936 9.41061 10.0692C10.123 10.9452 11.0115 11.6618 12.0185 12.1727C13.0254 12.6835 14.1284 12.9772 15.2561 13.0347C15.1127 12.4262 15.1744 11.7873 15.4316 11.2175C15.6888 10.6476 16.127 10.1787 16.6782 9.88362C17.2294 9.58853 17.8626 9.48381 18.4795 9.58573C19.0963 9.68765 19.6622 9.99051 20.0891 10.4472C20.7239 10.3216 21.3326 10.0888 21.8891 9.75872C21.6776 10.4159 21.2346 10.974 20.6426 11.3292C21.2049 11.2615 21.7539 11.1103 22.2716 10.8807C21.8913 11.4506 21.4123 11.9479 20.8571 12.3492Z" fill="black"/>
</svg>
